<svg version="1.2" xmlns="http://www.w3.org/2000/svg" viewBox="0 0 256 256" width="256" height="256"><style></style><path fill-rule="evenodd" d="m197.5 135.3c0.4 38.6 33.8 51.4 34.2 51.6-0.3 0.9-5.3 18.2-17.6 36.2-10.6 15.5-21.7 31-39 31.3-17.1 0.3-22.6-10.1-42.1-10.1-19.4 0-25.5 9.8-41.7 10.4-16.7 0.6-29.5-16.8-40.2-32.3-21.9-31.6-38.6-89.3-16.1-128.3 11.1-19.3 31-31.6 52.7-31.9 16.4-0.3 31.9 11.1 42 11.1 10 0 28.9-13.7 48.8-11.7 8.3 0.3 31.6 3.3 46.5 25.3-1.2 0.7-27.8 16.2-27.5 48.4zm-69.8-76.6c-2-14.6 5.2-29.9 13.5-39.4 9.2-10.8 24.7-18.8 37.5-19.3 1.6 14.9-4.3 29.9-13.2 40.7-8.9 10.7-23.5 19.1-37.8 18z"/></svg>