<svg version="1.2" xmlns="http://www.w3.org/2000/svg" viewBox="0 0 2069 618" width="2069" height="618"><style>.a{fill:#2c2f33}.b{fill:#95a7b3}.c{fill:#7289da;stroke:#2c2f33;stroke-width:17}.d{fill:#99aab5}.e{fill:#2c2f33;stroke:#2c2f33;stroke-width:3.5}.f{fill:#7289da}</style><path class="a" d="m820 22.6c1.9 0.2 10.5 0.8 19 1.4 8.5 0.7 15.9 1.4 16.5 1.8 0.5 0.3 4.8 0.9 9.5 1.3 4.7 0.4 11.4 1.4 15 2.2 3.6 0.8 9.9 2.2 14 3 4.1 0.9 11.5 3 16.5 4.7 4.9 1.7 11.2 4.2 14 5.5 2.7 1.2 7.5 3.4 10.5 4.8 3 1.4 8.4 4.3 12 6.3 3.6 2 10.3 6.2 15 9.3 4.7 3.1 11.9 8.3 16 11.5 4.1 3.3 9.7 8 12.5 10.5 2.8 2.4 10.1 9.7 16.4 16 6.2 6.4 14.8 15.8 19 20.9 4.2 5.1 10.6 13.7 14.4 19 3.7 5.3 10.2 15.3 14.5 22.2 4.3 6.9 10.8 18.6 14.4 26 3.6 7.4 7.7 16.2 9.1 19.5 1.4 3.3 4.1 10 6.1 15 1.9 4.9 3.5 9.4 3.6 10 0 0.5 1.1 4.4 2.5 8.5 1.3 4.1 3.1 10.6 3.9 14.5 0.8 3.8 2.2 9.9 3.1 13.5 0.9 3.6 2.1 10.5 2.6 15.5 0.5 4.9 1.3 16.4 1.7 25.5 0.4 9.1 0.4 19.4 0 23-0.4 3.6-1 9.4-1.4 13-0.3 3.6-1.5 10.1-2.6 14.5-1.1 4.4-2.4 9.6-2.8 11.5-0.5 1.9-2.5 7.8-4.5 13-2 5.2-5.7 13.3-8.2 18-2.6 4.7-5.3 9.8-6.1 11.5-0.8 1.6-4.9 7.7-9.1 13.5-4.1 5.8-10 13.2-13.1 16.5-3 3.3-8.4 8.9-12 12.5-3.6 3.6-9.8 9.5-13.8 13-4.1 3.6-8.1 6.9-9 7.4-1 0.5-1.9 1.2-2.2 1.5-0.3 0.4-3.7 2.9-7.5 5.7-3.9 2.9-11.7 8-17.5 11.6-5.8 3.5-17 9.6-25 13.6-8 3.9-18.3 8.7-23 10.6-4.7 1.9-14.1 5.2-21 7.4-6.9 2.2-15.4 4.7-19 5.5-3.6 0.9-7.9 1.8-9.5 2.1-1.7 0.4-6.6 1.3-11 2.1-4.4 0.9-13.4 2-20 2.6-7 0.6-19.7 0.8-30.5 0.4-16.6-0.6-19.9-1-32.5-4.2-9.1-2.3-15.9-4.6-19.3-6.6-2.9-1.8-6.4-4.6-7.6-6.2-1.3-1.7-3.1-5.9-4-9.5-1.5-5.8-1.6-7.1-0.3-11.5 0.8-2.7 2.2-6.3 3.3-8 1-1.6 3-4 4.4-5.2 1.4-1.2 4.5-3.2 7-4.4 3-1.5 6.3-2.1 10-2.1 3 0 6.8 0.6 8.5 1.2 1.6 0.6 6.8 2 11.5 3.1 6.6 1.6 12.4 2 26 2.2 11.8 0.1 21.4-0.4 29.5-1.6 6.6-0.9 16.3-2.8 21.5-4.1 5.2-1.3 13.8-3.9 19-5.6 5.2-1.8 13.3-4.8 18-6.7 4.7-1.9 13.2-5.9 19-8.7 5.8-2.9 14.3-7.7 19-10.6 4.7-2.9 11.6-7.6 15.5-10.4 3.8-2.7 10.1-7.8 14-11.1 3.8-3.4 10-9.3 13.7-13.1 3.6-3.8 7.8-8.5 9.3-10.4 1.5-1.9 4.6-6.2 7-9.5 2.5-3.3 6.7-10.1 9.4-15 2.7-5 6.3-12.6 8-17 1.6-4.4 4.2-13.6 5.5-20.5 2.1-10.1 2.6-15.4 2.6-27.5 0-8.3-0.4-17.5-1-20.5-0.5-3-1.7-9.8-2.6-15-0.9-5.2-2.5-12.7-3.6-16.5-1-3.9-2.6-9.4-3.4-12.3-0.8-2.8-3.5-10.5-6-17-2.5-6.4-7.1-16.9-10.2-23.2-3.1-6.3-8.2-15.8-11.2-21-3.1-5.2-8.3-13.3-11.5-18-3.2-4.7-10-13.7-15-20-5.1-6.3-14.6-16.7-21.1-23-6.6-6.4-13.7-12.9-15.9-14.5-2.2-1.7-4.2-3.2-4.5-3.5-0.3-0.3-3-2.4-6-4.5-3-2.2-9.3-6.3-14-9-4.7-2.8-10.1-5.8-12-6.7-1.9-0.9-6.2-2.8-9.5-4.3-3.3-1.4-10.1-3.9-15-5.5-5-1.6-14.4-4.1-21-5.4-6.6-1.4-18.1-3.1-25.5-3.7-8.5-0.7-21.1-0.9-34-0.4-11.3 0.3-23.4 1-27 1.5-3.6 0.5-11.5 1.6-17.5 2.5-6.1 0.8-13 2-15.5 2.4-2.5 0.5-7.9 1.7-12 2.6-4.1 0.9-9.3 2-11.5 2.4-2.2 0.4-7.2 1.7-11 2.8-3.9 1.2-9.5 2.7-12.5 3.3-3 0.7-7.3 1.8-9.5 2.5-2.2 0.7-10.1 3.2-17.5 5.5-7.4 2.3-16.7 5.4-20.5 6.7-3.9 1.4-10.8 4-15.5 5.8-4.7 1.8-14.6 5.6-22 8.5-7.4 2.9-15.8 6.3-18.5 7.6-2.8 1.2-9.7 4.3-15.5 6.7-5.8 2.5-14.8 6.5-20 9-5.2 2.4-15.1 7.2-22 10.5-6.9 3.3-14.8 6.9-17.5 8-2.8 1.1-7.3 3-10 4.2-2.8 1.2-6.4 2.8-8 3.6-1.7 0.7-5.3 2.3-8 3.4-2.8 1.2-7.9 3.2-11.5 4.5-3.6 1.3-11.7 4.1-18 6.4-6.3 2.3-14 4.8-17 5.7-3 0.8-9.3 2.6-14 3.9-4.7 1.3-11 3.1-14 4-3 1-6.9 1.9-8.5 2.2-1.7 0.2-7.5 1.5-13 2.8-5.5 1.3-15.4 3.5-22 4.9-6.6 1.4-18.5 3.5-26.5 4.6-8 1.2-20.1 2.8-27 3.6-6.9 0.8-17.2 1.9-23 2.4-5.8 0.5-19.1 1.7-29.5 2.6-14.4 1.3-33.9 1.8-80.5 2.2-41 0.2-67.2 0-78.5-0.8-9.4-0.6-21.1-1.6-26-2.2-5-0.5-14.2-1.3-20.5-1.8-6.3-0.5-16.2-1.5-22-2.4-5.8-0.8-14.1-2-18.5-2.6-4.4-0.6-9.8-2-12-3-2.2-1-5.5-3.2-7.3-4.9-1.7-1.7-4.1-4.9-5.2-7.1-1.4-2.8-2-6-2-10.5 0-4.1 0.7-8.1 1.8-10.8 1-2.3 3.3-5.7 5-7.5 1.8-1.7 5.1-4.2 7.4-5.5 3.3-1.7 5.9-2.2 11.3-2.1 3.8 0 9.7 0.5 13 1.2 3.3 0.6 11.8 1.8 19 2.6 7.1 0.8 17 2 22 2.5 4.9 0.6 24.5 1.8 43.5 2.7 26.4 1.2 44.7 1.5 78 1 23.9-0.4 53.8-1.3 66.5-2.1 12.6-0.8 29.3-2.1 37-2.9 7.7-0.8 17.1-1.9 21-2.5 3.8-0.6 10.8-1.7 15.5-2.6 4.7-0.9 12.1-2 16.5-2.5 4.4-0.5 10.7-1.7 14-2.6 3.3-0.9 8.5-2 11.5-2.5 3-0.4 8.2-1.5 11.5-2.3 3.3-0.8 10.9-2.8 17-4.5 6-1.6 14.8-4.1 19.5-5.4 4.7-1.4 15.5-4.9 24-8 8.5-3 18.4-6.7 22-8.2 3.6-1.5 7.8-3.3 9.5-4 1.6-0.7 10.2-4.5 19-8.5 8.8-4 20-9.2 25-11.5 4.9-2.3 12.1-5.7 16-7.5 3.8-1.7 14.4-6.3 23.5-10.2 9.1-3.8 19-8 22-9.2 3-1.3 8.9-3.6 13-5.1 4.1-1.5 10.6-4 14.5-5.5 3.8-1.6 14.4-5.3 23.5-8.3 9.1-3 21-6.8 26.5-8.5 5.5-1.8 13.6-4.1 18-5.2 4.4-1.2 13.2-3.4 19.5-5 6.3-1.6 16.9-3.9 23.5-5.1 6.6-1.2 15.1-2.8 19-3.6 3.8-0.7 11-1.8 16-2.3 4.9-0.5 13.3-1.3 18.5-1.9 5.2-0.6 14.7-1.5 21-2 6.3-0.5 13.1-0.7 15-0.5z"/><path fill-rule="evenodd" class="b" d="m409.9 450h-71.9l-22.1-53.1h-119.9l-20.1 53.1h-70.8l108.2-268.3h77.4zm-113.6-99.9h-82.6l39.3-103.8zm144.7-168.3v268.3h67.6v-109.4h9.9c18.9 0 32.2 0 50.3 33.9 5.5 10.6 28.7 63.7 34.6 75.5h73.6l-9.1-19.3c-7-15.3-18.4-40.5-25.9-55.8-5.9-13.8-19.3-41-38.6-50.4 11.4-5.5 46.1-21.2 46.1-66.1 0-31.8-20.9-53.9-35-63.3-21.7-13.4-46.1-13.4-70.5-13.4zm101.4 48.8c7.5 0 37.4 0 37.4 30.7 0 11-4.7 20.8-14.6 25.9-7 4-11.4 4-28.7 4.8h-27.9v-61.4zm454.7-48.8h-58.6l-86.1 101.9-85-101.9h-59.4v268.3h67.7v-164l72 86.5h9.8l72-86.5v164h67.6z"/><path class="a" d="m1050.7 343.8c0.8 0.4 5.7 6.5 10.7 13.7 5 7.1 10.7 15.6 12.6 19 2 3.3 5.5 8.5 7.8 11.5 2.3 3 4.1 6.4 4.1 7.5 0 1.1-1.8 5.4-4.1 9.5-2.3 4.1-4.8 8.8-5.6 10.5-0.8 1.6-4.9 7.7-9.1 13.5-4.1 5.8-10 13.2-13.1 16.5-3 3.3-8.4 8.9-12 12.5-3.6 3.6-9.8 9.5-13.8 13-4.1 3.6-8.1 6.9-9 7.4-1 0.5-1.9 1.2-2.2 1.5-0.3 0.4-3.7 2.9-7.5 5.7-3.9 2.9-11.7 8-17.5 11.6-5.8 3.5-17 9.6-25 13.6-8 3.9-18.3 8.7-23 10.6-4.7 1.9-14.1 5.2-21 7.4-6.9 2.2-15.4 4.7-19 5.5-3.6 0.9-7.9 1.8-9.5 2.1-1.7 0.4-6.6 1.3-11 2.1-4.4 0.9-13.4 2-20 2.6-7 0.6-19.7 0.8-30.5 0.4-16.6-0.6-19.9-1-32.5-4.2-9.1-2.3-15.9-4.6-19.3-6.6-2.9-1.8-6.4-4.6-7.6-6.2-1.3-1.7-3.1-5.9-4-9.5-1.5-5.8-1.6-7.1-0.3-11.5 0.8-2.8 2.2-6.3 3.3-8 1-1.6 3-4 4.4-5.2 1.4-1.2 4.5-3.2 7-4.4 3-1.5 6.3-2.1 10-2.1 3 0 6.8 0.6 8.5 1.2 1.6 0.6 6.8 2 11.5 3.1 6.6 1.6 12.4 2 26 2.2 11.8 0.1 21.4-0.4 29.5-1.6 6.6-0.9 16.3-2.8 21.5-4.1 5.2-1.3 13.8-3.9 19-5.6 5.2-1.8 13.3-4.8 18-6.7 4.7-1.9 13.2-5.9 19-8.7 5.8-2.9 14.3-7.7 19-10.6 4.7-2.9 11.6-7.6 15.5-10.4 3.8-2.7 10.1-7.8 14-11.1 3.8-3.4 10-9.3 13.7-13.1 3.6-3.8 7.8-8.5 9.3-10.4 1.5-1.9 4.6-6.2 7-9.5 2.5-3.3 6.7-10.1 9.4-15 2.7-5 6.3-12.6 7.9-17 1.7-4.4 3.8-11.5 4.7-15.7 1.3-6.3 1.8-7.6 3.2-7z"/><path class="c" d="m646.6 351l63.5 22.6 15.9-36.7 55.2 19c58.9 20.3 92.8 79.8 80.1 139.7l-15.5 41.3c-31.2 56.7-101.4 82.8-163.1 57.4l-57.8-23.8 17.9-41.2-65.5-26.2c-10.6-4.2-15.1-16.5-10.1-27.3 4.9-10.8 17.4-16.2 28-12l65 25.2 33.6-77.8-64-23.5c-10.5-3.8-15.1-15.1-10.4-25.2 4.7-10 16.7-15.2 27.2-11.5z"/><path class="d" d="m638.7 356.2c1.6 0 17.5 5 35.3 11.3 17.8 6.2 32.5 11.3 32.7 11.4 0.2 0.1-0.8 5.4-2.2 11.8-1.4 6.4-3.2 12.6-4.1 13.7-1.2 1.7-7.7-0.3-36-10.6-23.9-8.7-35.4-13.6-37.2-15.9-1.4-1.8-2.6-5.1-2.6-7.3 0.1-2.3 0.8-5.4 1.6-7 0.8-1.6 3.3-3.9 5.5-5.1 2.2-1.2 5.4-2.2 7-2.3zm-52.2 113.3c3.1-0.1 18.9 5.2 39.7 13.2 19 7.3 34.7 13.6 34.9 14 0.2 0.4-3.3 6.5-15.9 26.4l-34.1-13.5c-23.2-9.2-35-14.6-36.8-16.9-1.5-1.9-2.6-5.2-2.6-7.4 0-2.3 0.8-5.6 1.7-7.4 0.9-1.8 3.1-4.4 4.8-5.8 1.7-1.4 5.5-2.6 8.3-2.6z"/><path class="e" d="m709.5 368.9l8.5 4.1-19.8 45.8-8.5-4.5z"/><path class="e" d="m657.5 488.9l8.5 4.1-19.8 45.8-8.5-4.5z"/><path fill-rule="evenodd" class="f" d="m1170 180.6c12.4 0.5 25.3 2.6 32.7 5.4 6.6 2.5 17.9 8.9 25.1 14.2 7.4 5.5 17.1 15.9 22.5 24.2 5.2 8 9 15.6 8.5 16.9-0.5 1.4-12.8 7.1-53.7 23.2l-7.3-7.2c-4-3.9-10.5-8.4-14.5-10-4-1.5-12.4-2.6-18.8-2.5-6.3 0.1-15.4 2.1-20.3 4.4-4.8 2.3-10.3 7.2-12.1 10.9-2.4 4.9-3.3 19.5-3.4 56.9 0 46.8 0.3 50.7 4.9 56.9 2.7 3.6 8.2 8.3 12.2 10.3 4 2 12.1 3.6 18.1 3.6 6 0 15-1.9 19.9-4.2 4.9-2.4 10.7-7.3 12.7-10.9 2.1-3.7 4.8-6.6 6.2-6.6 1.3 0 14.7 5.7 29.7 12.7 15 6.9 27.3 13.7 27.2 15 0 1.4-2.1 5.7-4.5 9.7-2.4 4-9.3 12.2-15.2 18.2-5.9 6-17.8 14.4-26.4 18.8-8.6 4.3-21.7 9.1-29 10.6-7.3 1.5-21 2.1-30.3 1.3-9.3-0.7-23.8-3.8-32.2-6.9-8.5-3.1-20.4-9.5-26.6-14.1-6.1-4.7-14.8-13.4-19.3-19.4-4.5-6-9.7-16.3-11.7-23-2.6-9.1-3.4-27.5-3.4-74.4 0-55.7 0.5-63.7 4.7-75.1 2.6-7.1 9.9-18.5 16.3-25.7 8-8.8 17.1-15.6 28.7-21.2 9.3-4.5 21.8-9.3 27.8-10.5 6-1.3 20.2-1.9 31.5-1.5zm222.7-0.1c15.7 0.6 28 2.6 38.8 6.3 8.6 3 21.4 9.1 28.4 13.6 7 4.6 16.3 13.2 20.6 19.3 4.3 6 9.7 16.1 12 22.3 3.5 9.7 4.1 21.1 4.1 74.4 0 53.3-0.6 64.7-4.1 74.3-2.3 6.3-7.7 16.3-12 22.4-4.3 6.1-13.6 14.9-20.6 19.5-7 4.7-19.8 10.8-28.4 13.6-8.7 2.7-23.9 5.5-33.9 6.3-10 0.7-25.8 0-35.1-1.5-9.4-1.6-23.8-6-32.1-10-8.3-4-20.3-12-26.7-17.8-7.1-6.5-14.2-16.5-26-41.5l-0.7-60.5c-0.7-55.3-0.3-61.9 4.2-76.9 3.8-12.4 7.8-19.3 16.7-29 6.6-7.1 18.6-16.3 27.3-20.9 8.5-4.6 22-9.7 30-11.5 8.6-1.9 24-2.9 37.5-2.4zm-39.3 74.7l-6.7 6.7v109c12.8 11.9 20.3 15.7 27.9 17.3 9.2 2 15.3 1.9 25.4-0.5 9.4-2.2 15.6-5.5 21.2-11.2l7.8-8.1c0-104 0-104.1-6-111.3-4-4.8-10.5-8.6-18.8-10.9-7-2.1-15.4-3.6-18.7-3.4-3.4 0.1-10.4 1.4-15.8 2.9-5.3 1.5-12.7 5.8-16.3 9.5zm417-73.2h60.6c49 0 63.6 0.8 76.8 4.1 10 2.6 22 8 30.9 14 8.7 5.8 17.7 14.6 22.5 21.9 4.4 6.6 9.2 15.9 10.6 20.5 1.5 4.7 3.2 33 3.8 63 0.9 36.9 0.3 59.9-1.7 71.4-1.6 9.3-5 21-7.6 26-2.5 5-9.2 13.7-14.9 19.3-5.6 5.6-16.8 13.1-24.8 16.8-8 3.7-21.6 7.8-30.3 9.2-8.6 1.4-40.5 2.5-125.9 2.5v-65.3l51.5-0.1c28.3 0 55.8-1.1 61.1-2.3 5.3-1.3 12.4-5.1 15.8-8.5 6-6.1 6-6.5 6.6-55.8 0.5-40.1-0.1-50.9-3-56.8-2-4-6.9-8.9-10.9-10.9-4.8-2.4-14.5-3.6-50.9-3.6l0.1 50.2c0.1 27.7-0.8 51.1-1.8 52.2-1 1-16.9-13.2-68.5-64.9zm-239.4 2.2l141.4 1.4 14.5 6.8c8 3.8 18.7 10.8 23.8 15.8 5.1 4.9 11.8 13.8 14.8 19.8 3.1 6 6.8 16.6 8.3 23.6 1.5 7 2.7 17.6 2.7 23.6 0 6-1.2 16.6-2.7 23.6-1.5 7-5 17.6-7.8 23.6-2.9 6-9.1 14.7-13.8 19.4-4.8 4.6-12.2 10.1-16.5 12.1-4.3 2-7.7 4.5-7.7 5.5 0.1 0.9 14.4 20 32 42.3 17.5 22.3 33 42 34.5 43.7 2.1 2.5-5.6 3.1-84.6 2.7l-29.2-40.4c-20.8-28.9-30.7-40.7-34.5-41.1-5.2-0.6-5.3-0.3-5.3 81.7h-70.2zm70 121.3c38.6 0 48.3-1.1 53.2-3.6 4-2 9.1-7.2 11.2-11.5 2.7-5.4 3.5-10.9 2.5-17.5-0.8-5.4-3.4-11.8-5.8-14.3-2.3-2.5-7.8-6-12.1-7.9-4.6-1.9-16.5-3.3-28.5-3.3h-20.5z"/></svg>