<svg version="1.2" baseProfile="tiny-ps" xmlns="http://www.w3.org/2000/svg" viewBox="0 0 3629 1080" width="1613" height="480">
	<style>
		tspan { white-space:pre }
		.shp0 { fill: #2c2f33 } 
		.shp1 { fill: #95a7b4 } 
		.shp2 { fill: #7289da;stroke: #2c2f33;stroke-width: 24.572;stroke-dasharray: 0 } 
		.shp3 { fill: #99aab5 } 
		.shp4 { fill: #7289da } 
	</style>
	<g id="Folder 1">
		<g id="ARMCORD-LOGO">
			<path id="Path 0" class="shp0" d="M1488.18 0.12C1491.67 0.46 1507.18 1.69 1522.64 2.8C1538.13 3.95 1551.59 5.35 1552.59 5.92C1553.59 6.46 1561.36 7.58 1569.84 8.38C1578.33 9.15 1590.56 10.98 1597.05 12.4C1603.53 13.83 1614.99 16.29 1622.48 17.83C1629.96 19.4 1643.42 23.23 1652.42 26.35C1661.39 29.46 1672.82 33.92 1677.82 36.2C1682.8 38.52 1691.4 42.49 1696.88 45.06C1702.37 47.63 1712.17 52.75 1718.66 56.43C1725.14 60.12 1737.4 67.72 1745.89 73.29C1754.37 78.86 1767.43 88.29 1774.92 94.23C1782.4 100.18 1792.61 108.72 1797.61 113.2C1802.58 117.69 1815.95 130.8 1827.29 142.35C1838.64 153.89 1854.15 170.92 1861.78 180.2C1869.41 189.49 1881.16 205 1887.9 214.69C1894.64 224.38 1906.53 242.49 1914.3 254.98C1922.1 267.43 1933.87 288.66 1940.45 302.15C1947.05 315.63 1954.48 331.55 1956.96 337.55C1959.48 343.52 1964.42 355.78 1967.99 364.75C1971.53 373.75 1974.45 381.92 1974.45 382.89C1974.45 383.89 1976.51 390.83 1979.02 398.32C1981.54 405.8 1984.76 417.66 1986.22 424.63C1987.71 431.63 1990.22 442.66 1991.82 449.15C1993.42 455.63 1995.54 468.29 1996.51 477.26C1997.48 486.26 1998.88 507.06 1999.62 523.55C2000.37 540 2000.34 558.8 1999.59 565.29C1998.82 571.78 1997.71 582.38 1997.11 588.86C1996.51 595.35 1994.39 607.2 1992.39 615.18C1990.37 623.18 1988.05 632.55 1987.19 636.06C1986.34 639.55 1982.65 650.15 1979.02 659.63C1975.39 669.12 1968.68 683.83 1964.11 692.32C1959.53 700.8 1954.59 710.18 1953.1 713.18C1951.62 716.18 1944.25 727.2 1936.7 737.66C1929.16 748.15 1918.47 761.63 1912.93 767.6C1907.39 773.6 1897.56 783.86 1891.07 790.38C1884.58 796.92 1873.27 807.55 1865.95 813.98C1858.61 820.4 1851.27 826.43 1849.61 827.35C1847.95 828.26 1846.18 829.52 1845.7 830.12C1845.18 830.72 1839.07 835.38 1832.07 840.46C1825.09 845.55 1810.81 854.98 1800.32 861.4C1789.83 867.83 1769.43 878.92 1754.95 886.06C1740.49 893.2 1721.69 901.86 1713.2 905.29C1704.71 908.72 1687.57 914.8 1675.11 918.8C1662.62 922.83 1647.11 927.35 1640.62 928.83C1634.14 930.35 1626.36 932.06 1623.36 932.66C1620.39 933.23 1611.39 934.95 1603.42 936.43C1595.42 937.95 1579.1 940.03 1567.1 941.09C1554.36 942.23 1531.44 942.55 1511.75 941.83C1481.64 940.78 1475.58 940 1452.78 934.26C1436.26 930.09 1424 925.86 1417.72 922.15C1412.4 919 1406.17 913.98 1403.86 910.98C1401.57 907.98 1398.32 900.23 1396.63 893.75C1393.89 883.26 1393.83 880.92 1396.12 872.86C1397.52 867.89 1400.23 861.35 1402.14 858.38C1404.03 855.38 1407.63 851.12 1410.12 848.89C1412.63 846.66 1418.35 843.09 1422.83 840.92C1428.32 838.29 1434.26 837.03 1440.98 837.12C1446.46 837.2 1453.41 838.18 1456.41 839.32C1459.41 840.43 1468.81 842.98 1477.27 844.98C1489.24 847.78 1499.87 848.63 1524.47 848.83C1545.96 849.03 1563.27 848.12 1578.02 846.03C1589.99 844.32 1607.53 840.95 1617.02 838.55C1626.51 836.12 1642.02 831.55 1651.51 828.35C1660.99 825.18 1675.68 819.69 1684.17 816.23C1692.65 812.75 1708.17 805.6 1718.66 800.4C1729.14 795.18 1744.66 786.55 1753.15 781.23C1761.63 775.89 1774.29 767.46 1781.26 762.43C1788.26 757.43 1799.69 748.29 1806.66 742.15C1813.66 735.98 1824.84 725.32 1831.49 718.43C1838.15 711.55 1845.78 703.06 1848.41 699.58C1851.04 696.06 1856.81 688.32 1861.18 682.32C1865.58 676.35 1873.21 664.09 1878.13 655.12C1883.07 646.12 1889.61 632.23 1892.64 624.26C1895.67 616.26 1900.24 599.52 1902.76 587.06C1906.44 568.8 1907.36 559.03 1907.36 537.15C1907.36 522.18 1906.59 505.43 1905.62 499.95C1904.64 494.46 1902.53 482.2 1900.9 472.72C1899.27 463.26 1896.36 449.78 1894.39 442.78C1892.44 435.8 1889.67 425.8 1888.21 420.55C1886.79 415.32 1881.87 401.43 1877.3 389.72C1872.7 377.98 1864.35 359 1858.75 347.52C1853.15 336.03 1843.95 318.89 1838.35 309.4C1832.72 299.92 1823.38 285.23 1817.58 276.75C1811.78 268.26 1799.49 251.92 1790.29 240.46C1781.06 228.98 1763.83 210.15 1751.97 198.63C1740.14 187.12 1727.17 175.26 1723.2 172.32C1719.2 169.38 1715.51 166.55 1715.03 166C1714.51 165.46 1709.66 161.78 1704.17 157.83C1698.71 153.86 1687.28 146.52 1678.77 141.49C1670.25 136.49 1660.45 131.03 1656.94 129.4C1653.45 127.78 1645.71 124.26 1639.71 121.63C1633.71 119 1621.48 114.46 1612.48 111.58C1603.5 108.69 1586.36 104.26 1574.36 101.75C1562.39 99.23 1541.56 96.26 1528.1 95.12C1512.73 93.83 1489.75 93.52 1466.38 94.29C1445.92 94.98 1423.89 96.23 1417.4 97.09C1410.89 97.95 1396.6 99.98 1385.63 101.58C1374.66 103.15 1362 105.18 1357.51 106.03C1353 106.92 1343.2 108.98 1335.71 110.63C1328.22 112.29 1318.85 114.29 1314.85 115.03C1310.85 115.8 1301.88 118.12 1294.88 120.18C1287.91 122.26 1277.71 124.95 1272.19 126.18C1266.71 127.4 1258.96 129.43 1254.96 130.72C1250.96 131.98 1236.67 136.46 1223.22 140.69C1209.73 144.89 1192.98 150.35 1185.98 152.83C1179.01 155.29 1166.35 159.98 1157.87 163.26C1149.38 166.52 1131.41 173.49 1117.95 178.75C1104.46 184 1089.35 190.2 1084.38 192.49C1079.38 194.8 1066.72 200.32 1056.23 204.78C1045.74 209.23 1029.43 216.52 1019.94 220.98C1010.46 225.43 992.48 234.03 980.02 240.06C967.54 246.12 953.25 252.66 948.25 254.6C943.25 256.58 935.11 259.98 930.11 262.2C925.11 264.43 918.59 267.35 915.59 268.69C912.59 270.06 906.05 272.89 901.07 275.03C896.07 277.15 886.67 280.75 880.19 283.06C873.7 285.38 859.01 290.6 847.53 294.72C836.04 298.8 822.15 303.46 816.67 305C811.18 306.58 799.75 309.8 791.27 312.18C782.78 314.55 771.35 317.83 765.86 319.49C760.38 321.12 753.43 322.83 750.43 323.29C747.43 323.75 736.83 326.06 726.83 328.43C716.86 330.8 698.89 334.8 686.91 337.35C674.94 339.89 653.28 343.69 638.82 345.78C624.34 347.86 602.31 350.8 589.82 352.29C577.33 353.75 558.56 355.72 548.07 356.6C537.59 357.52 513.5 359.63 494.56 361.35C468.38 363.66 433.09 364.6 348.46 365.2C273.97 365.75 226.56 365.32 205.99 363.89C189.02 362.75 167.79 360.95 158.78 359.95C149.81 358.92 133.07 357.43 121.58 356.58C110.12 355.75 92.15 353.8 81.66 352.29C71.18 350.75 56.09 348.58 48.09 347.49C40.12 346.38 30.32 343.98 26.32 342.15C22.32 340.29 16.4 336.26 13.14 333.18C9.92 330.09 5.63 324.29 3.63 320.29C1.11 315.26 0 309.4 0 301.23C0 293.83 1.23 286.58 3.31 281.75C5.14 277.49 9.23 271.38 12.4 268.12C15.57 264.89 21.63 260.38 25.86 258.15C31.83 254.98 36.46 254.09 46.29 254.18C53.26 254.23 63.89 255.2 69.86 256.38C75.86 257.52 91.38 259.69 104.35 261.18C117.32 262.66 135.3 264.72 144.27 265.75C153.27 266.78 188.79 268.95 223.22 270.58C271.22 272.83 304.28 273.26 364.77 272.35C408.21 271.72 462.52 270 485.47 268.55C508.41 267.09 538.64 264.72 552.62 263.26C566.59 261.8 583.73 259.8 590.73 258.78C597.71 257.78 610.36 255.66 618.85 254.09C627.34 252.52 640.82 250.43 648.8 249.49C656.8 248.55 668.23 246.46 674.2 244.86C680.2 243.23 689.6 241.2 695.09 240.35C700.57 239.46 709.97 237.58 715.95 236.12C721.95 234.69 735.83 231 746.8 227.98C757.78 224.95 773.72 220.49 782.21 218.06C790.69 215.63 810.27 209.18 825.75 203.69C841.21 198.2 859.19 191.49 865.67 188.78C872.16 186.06 879.93 182.8 882.93 181.49C885.9 180.2 901.42 173.23 917.39 165.98C933.36 158.72 953.79 149.35 962.77 145.15C971.77 140.92 984.82 134.83 991.8 131.63C998.8 128.4 1018 120.09 1034.46 113.15C1050.92 106.2 1068.89 98.63 1074.37 96.32C1079.86 93.98 1090.49 89.83 1097.98 87.09C1105.46 84.35 1117.29 79.8 1124.29 77.06C1131.29 74.29 1150.47 67.55 1166.95 62.09C1183.41 56.63 1205.04 49.66 1215.04 46.55C1225.02 43.46 1239.7 39.23 1247.7 37.12C1255.68 35.03 1271.62 30.98 1283.08 28.09C1294.56 25.2 1313.77 21.06 1325.74 18.92C1337.71 16.75 1353.23 13.83 1360.23 12.43C1367.2 11.03 1380.29 9.15 1389.26 8.26C1398.23 7.35 1413.35 5.72 1422.83 4.66C1432.32 3.58 1449.46 1.98 1460.95 1.09C1472.44 0.2 1484.67 -0.22 1488.18 0.12Z" />
			<path id="Path 0" fill-rule="evenodd" class="shp1" d="M388.35 294.09L530.16 295.03L638.02 537.74C697.37 671.23 745.89 780.86 745.89 781.37C745.89 781.86 716.29 782.29 614.34 782.31L574.39 686.11L358.43 686.06L322.14 782.23L257.25 782.26C221.56 782.26 192.27 781.89 192.13 781.4C192.02 780.91 235.22 673.31 288.2 542.31C341.14 411.29 385.35 301.83 386.4 299.09L388.35 294.09ZM427.41 503.26C445.24 456.09 460.27 417.49 460.84 417.46C461.41 417.43 479.04 458.66 538.1 600.66L390.2 600.8L392.6 594.89C393.95 591.66 409.61 550.43 427.41 503.26ZM801.84 296.23C801.3 297.57 800.75 407.46 800.61 540.46L800.35 782.26L925.56 782.26L925.56 584.46C950.19 584.49 962.22 585.31 968.22 586.31C974.2 587.31 982.37 589.71 986.37 591.66C990.37 593.6 997.23 598.29 1001.6 602.09C1006 605.86 1014.74 616.71 1021.06 626.2C1028.46 637.34 1039.91 659.8 1053.46 689.71C1065 715.17 1079.18 746.2 1084.95 758.69L1095.43 781.37C1200.07 782.06 1230.47 781.86 1230.47 781.37C1230.47 780.86 1226.3 771.69 1221.22 760.94C1216.16 750.2 1202.59 721.03 1191.1 696.06C1179.61 671.11 1165.3 640.91 1159.3 628.91C1153.3 616.94 1145.07 602.26 1141.01 596.26C1136.92 590.26 1128.64 580.2 1122.61 573.89C1116.55 567.57 1108.72 560.71 1105.23 558.69L1098.89 554.97C1123.81 540.57 1135.95 531.89 1141.98 526.4C1147.98 520.91 1156.64 510.69 1161.21 503.71C1165.78 496.71 1171.35 485.69 1173.61 479.2C1175.87 472.71 1178.64 460.49 1179.78 452C1181.38 440.31 1181.36 432.6 1179.75 420.23C1178.58 411.26 1175.64 398.2 1173.18 391.2C1170.73 384.2 1165.3 372.77 1161.1 365.8C1156.9 358.8 1147.72 347.09 1140.69 339.77C1133.67 332.43 1123.44 323.49 1117.95 319.86C1112.46 316.23 1101.01 310.63 1092.52 307.46C1084.06 304.26 1069.75 300.23 1060.77 298.51C1046.6 295.77 1028.54 295.26 923.62 294.57C824.01 293.94 802.61 294.23 801.84 296.23ZM925.91 384.51L1011.86 385.74L1024.06 391.66C1031.49 395.23 1038.43 400.23 1041.77 404.34C1044.8 408.09 1048.49 415.26 1049.94 420.23C1051.43 425.23 1052.63 434.2 1052.66 440.2C1052.66 446.17 1051.26 455.17 1049.54 460.17C1047.69 465.57 1043.49 472.17 1039.09 476.54C1035.06 480.54 1027.86 485.66 1023.11 487.89C1016.63 490.91 1008.77 492.34 991.37 493.69C978.62 494.66 958.62 495.46 925.56 495.54L925.91 384.51ZM1286.74 782.26L1410.12 782.26L1411.03 487.86L1539.9 642.69L1558.04 642.63L1686.88 487.77L1687.8 782.26L1811.21 782.26L1811.21 294.11L1705.06 294.03C1586.9 433.8 1551.79 475.51 1550.79 476.91C1549.39 478.89 1531.33 458.29 1471.84 386.83L1394.72 294.2L1286.74 294.11L1286.74 782.26Z" />
			<path id="Path 0" class="shp0" d="M1906.76 585.94C1908.36 586.63 1917.13 597.77 1926.22 610.69C1935.33 623.63 1945.68 639.14 1949.22 645.17C1952.76 651.2 1959.08 660.63 1963.25 666.11C1967.42 671.63 1970.82 677.74 1970.82 679.74C1970.82 681.74 1967.42 689.49 1963.31 696.97C1959.16 704.46 1954.56 713.03 1953.1 716.03C1951.62 719.03 1944.25 730.06 1936.7 740.51C1929.16 751 1918.47 764.49 1912.93 770.46C1907.39 776.46 1897.56 786.71 1891.07 793.23C1884.58 799.77 1873.27 810.4 1865.95 816.83C1858.61 823.26 1851.27 829.29 1849.61 830.2C1847.95 831.11 1846.18 832.37 1845.7 832.97C1845.18 833.57 1839.07 838.23 1832.07 843.31C1825.09 848.4 1810.81 857.83 1800.32 864.26C1789.83 870.69 1769.43 881.77 1754.95 888.91C1740.49 896.06 1721.69 904.71 1713.2 908.14C1704.71 911.57 1687.57 917.66 1675.11 921.66C1662.62 925.69 1647.11 930.2 1640.62 931.69C1634.14 933.2 1626.36 934.91 1623.36 935.51C1620.39 936.09 1611.39 937.8 1603.42 939.29C1595.42 940.8 1579.1 942.89 1567.1 943.94C1554.36 945.09 1531.44 945.4 1511.75 944.69C1481.64 943.63 1475.58 942.86 1452.78 937.11C1436.26 932.94 1424 928.71 1417.72 925C1412.4 921.86 1406.17 916.83 1403.86 913.83C1401.57 910.83 1398.32 903.09 1396.63 896.6C1393.89 886.11 1393.83 883.77 1396.12 875.71C1397.52 870.74 1400.23 864.2 1402.14 861.23C1404.03 858.23 1407.63 853.97 1410.12 851.74C1412.63 849.51 1418.35 845.94 1422.83 843.77C1428.32 841.14 1434.26 839.89 1440.98 839.97C1446.46 840.06 1453.41 841.03 1456.41 842.17C1459.41 843.29 1468.81 845.83 1477.27 847.83C1489.24 850.63 1499.87 851.49 1524.47 851.69C1545.96 851.89 1563.27 850.97 1578.02 848.89C1589.99 847.17 1607.53 843.8 1617.02 841.4C1626.51 838.97 1642.02 834.4 1651.51 831.2C1660.99 828.03 1675.68 822.54 1684.17 819.09C1692.65 815.6 1708.17 808.46 1718.66 803.26C1729.14 798.03 1744.66 789.4 1753.15 784.09C1761.63 778.74 1774.29 770.31 1781.26 765.29C1788.26 760.29 1799.69 751.14 1806.66 745C1813.66 738.83 1824.84 728.17 1831.49 721.29C1838.15 714.4 1845.78 705.91 1848.41 702.43C1851.04 698.91 1856.81 691.17 1861.18 685.17C1865.58 679.2 1873.21 666.94 1878.13 657.97C1883.07 648.97 1889.56 635.09 1892.59 627.11C1895.59 619.11 1899.36 606.31 1900.96 598.66C1903.36 587.14 1904.36 584.91 1906.76 585.94Z" />
			<g id="Plug">
				<path id="Layer" class="shp2" d="M1173.38 598.97L1288.76 640L1317.62 573.31L1417.8 607.89C1524.61 644.77 1586.13 752.77 1563.16 861.37L1535.04 936.4C1478.35 1039.29 1350.94 1086.57 1238.99 1040.49L1134.18 997.31L1166.55 922.51L1047.74 875.06C1028.46 867.31 1020.31 845.03 1029.31 825.43C1038.29 805.89 1061 796.14 1080.23 803.6L1198.13 849.34L1259.22 708.17L1142.89 665.63C1124.01 658.77 1115.66 638.23 1124.12 619.86C1132.55 601.63 1154.5 592.29 1173.38 598.97L1173.38 598.97Z" />
				<path id="Layer" class="shp0" d="M1161.12 584.51C1166.61 584.46 1173.24 585.66 1175.81 587.14C1178.35 588.63 1199.7 596.57 1223.16 604.71C1246.65 612.94 1269.19 620.74 1273.22 622.09C1279.76 624.2 1280.56 625.74 1280.56 636.46C1280.56 643.09 1279.96 648.49 1279.22 648.49C1278.48 648.49 1252.68 639.49 1221.82 628.49C1191.01 617.43 1163.35 608.43 1160.44 608.43C1157.52 608.43 1151.5 610.26 1147.12 612.49C1142.72 614.66 1137.89 618.89 1136.41 621.8C1134.98 624.71 1133.72 630.43 1133.64 634.46C1133.58 638.51 1135.67 644.54 1138.32 647.83C1141.61 651.94 1162.3 660.86 1204.47 676.37C1238.25 688.74 1265.62 699.83 1265.3 701.03C1265.02 702.2 1260.42 713.37 1255.13 725.86C1249.79 738.34 1241.9 755.77 1237.59 764.6C1233.25 773.37 1229.76 782.69 1229.76 785.23C1229.82 787.83 1225.13 799.86 1219.36 811.97C1213.61 824.09 1207.01 840.26 1204.7 847.97C1202.39 855.66 1200.21 861.97 1199.84 861.97C1199.47 862.03 1170.93 851.17 1136.41 837.89C1098.83 823.46 1069.97 813.86 1064.35 813.97C1059.26 814 1052.49 816.14 1049.32 818.69C1046.2 821.2 1042.31 825.97 1040.66 829.26C1039.03 832.6 1037.69 838.91 1037.69 843.29C1037.69 848 1040.17 853.86 1043.66 857.49C1047.14 861 1075.06 873.8 1109.18 887.49C1141.84 900.63 1168.61 911.94 1168.61 912.69C1168.55 913.43 1164.61 919.17 1159.84 925.43C1153.24 934.03 1150.78 935.8 1149.78 932.54C1148.92 929.89 1127.35 919.83 1092.38 905.83C1046.72 887.57 1034.74 881.69 1027.66 874.03C1022.88 868.89 1017.6 859.57 1015.83 853.29C1013.37 844.43 1013.4 839.34 1016 829.97C1017.86 823.34 1022.03 814.34 1025.34 809.91C1028.69 805.57 1036.71 799.26 1043.2 795.97C1049.83 792.63 1060 789.97 1066.35 789.97C1074.23 789.91 1095.15 796.66 1191.96 833.94L1216.9 776.57C1230.64 745.03 1241.87 718.2 1241.87 716.94C1241.87 715.69 1217.04 705.49 1186.76 694.26C1146.47 679.31 1129.35 671.69 1123.26 665.83C1118.69 661.43 1113.64 653.63 1112.01 648.49C1110.38 643.31 1109.72 633.71 1110.61 627.14C1111.58 619.43 1114.92 611.77 1119.95 605.8C1124.26 600.66 1132.98 593.77 1139.44 590.54C1145.84 587.23 1155.61 584.54 1161.12 584.51L1161.12 584.51Z" />
				<path id="Layer" class="shp3" d="M1159.1 608.49C1162.07 608.4 1190.87 617.57 1223.16 628.86C1255.48 640.17 1282.19 649.49 1282.56 649.63C1282.93 649.74 1281.11 659.34 1278.56 670.97C1275.96 682.63 1272.68 693.86 1271.19 695.86C1269.02 698.91 1257.22 695.43 1205.81 676.69C1162.44 660.86 1141.61 651.94 1138.32 647.83C1135.67 644.54 1133.58 638.51 1133.64 634.46C1133.72 630.43 1134.98 624.71 1136.41 621.8C1137.89 618.89 1142.38 614.71 1146.44 612.57C1150.47 610.43 1156.18 608.57 1159.1 608.49L1159.1 608.49ZM1064.35 813.97C1069.97 813.86 1098.69 823.46 1136.41 838C1170.93 851.31 1199.47 862.71 1199.84 863.4C1200.21 864.11 1193.84 875.14 1170.93 911.34L1108.98 886.83C1066.86 870.2 1045.46 860.34 1042.23 856.14C1039.63 852.74 1037.49 846.66 1037.57 842.63C1037.63 838.6 1039.03 832.6 1040.66 829.26C1042.31 825.97 1046.2 821.2 1049.32 818.69C1052.49 816.14 1059.26 814 1064.35 813.97Z" />
				<path id="Layer" class="shp0" d="M1283.88 632.03L1305.28 636.17L1268.13 719.51L1246.67 714.57L1283.88 632.03Z" />
				<path id="Layer copy" class="shp0" d="M1192.44 840.6L1213.84 844.74L1176.7 928.09L1155.24 923.14L1192.44 840.6Z" />
			</g>
		</g>
		<path id="Path 0" fill-rule="evenodd" class="shp4" d="M2080.29 300.4C2101.4 301.23 2123.23 304.83 2135.66 309.54C2146.95 313.8 2166.09 324.63 2178.24 333.6C2190.75 342.86 2207.27 360.57 2216.36 374.51C2225.16 388.06 2231.67 400.97 2230.81 403.23C2229.96 405.49 2209.13 415.26 2139.75 442.54L2127.46 430.31C2120.69 423.6 2109.6 415.97 2102.83 413.4C2096.09 410.8 2081.77 408.86 2071.06 409.03C2060.34 409.23 2044.86 412.6 2036.65 416.54C2028.45 420.51 2019.22 428.8 2016.14 435C2012 443.4 2010.51 468.09 2010.42 531.4C2010.28 610.69 2010.85 617.26 2018.62 627.77C2023.2 633.97 2032.51 641.83 2039.25 645.2C2046.03 648.6 2059.89 651.37 2070.03 651.37C2080.17 651.37 2095.35 648.14 2103.69 644.17C2112.06 640.23 2121.75 631.94 2125.23 625.74C2128.72 619.57 2133.41 614.54 2135.66 614.57C2137.92 614.6 2160.58 624.29 2186.04 636.09C2211.5 647.86 2232.24 659.37 2232.16 661.6C2232.1 663.86 2228.64 671.26 2224.53 678.03C2220.38 684.8 2208.81 698.63 2198.78 708.77C2188.75 718.94 2168.58 733.26 2154.01 740.6C2139.41 747.97 2117.29 756.03 2104.89 758.54C2092.49 761.06 2069.4 762.11 2053.63 760.86C2037.83 759.63 2013.22 754.31 1998.94 749.09C1984.65 743.83 1964.45 733.09 1954.02 725.2C1943.62 717.29 1928.87 702.51 1921.25 692.37C1913.62 682.23 1904.76 664.69 1901.5 653.4C1897.07 637.94 1895.64 606.89 1895.67 527.29C1895.7 433.03 1896.56 419.37 1903.64 400.14C1908.07 388.17 1920.36 368.86 1931.33 356.66C1944.82 341.66 1960.19 330.23 1979.79 320.69C1995.59 313 2016.8 304.97 2026.97 302.86C2037.11 300.74 2061.11 299.63 2080.29 300.4ZM2457.66 300.23C2484.21 301.2 2505.12 304.6 2523.27 310.86C2537.95 315.91 2559.64 326.31 2571.47 333.94C2583.33 341.6 2599.02 356.26 2606.33 366.51C2613.67 376.77 2622.82 393.83 2626.67 404.43C2632.62 420.77 2633.68 440.06 2633.68 530.37C2633.68 620.69 2632.62 639.97 2626.67 656.29C2622.82 666.91 2613.67 683.97 2606.33 694.23C2599.02 704.49 2583.33 719.4 2571.47 727.34C2559.64 735.29 2537.95 745.6 2523.27 750.23C2508.61 754.86 2482.78 759.66 2465.86 760.91C2448.92 762.14 2422.17 761.03 2406.37 758.43C2390.57 755.8 2366.14 748.2 2352.02 741.49C2337.94 734.77 2317.62 721.23 2306.91 711.37C2294.88 700.31 2282.7 683.46 2262.82 641.11L2261.59 538.57C2260.44 444.8 2261.04 433.66 2268.76 408.34C2275.13 387.31 2281.96 375.49 2297.05 359.14C2308.16 347.11 2328.54 331.46 2343.19 323.66C2357.65 316 2380.54 307.26 2394.06 304.26C2408.57 301.03 2434.66 299.37 2457.66 300.23ZM2391 426.69L2379.71 438.09L2379.71 622.66C2401.37 642.89 2414.09 649.26 2426.89 652.06C2442.49 655.46 2452.8 655.29 2469.95 651.26C2485.86 647.54 2496.44 641.94 2505.84 632.26L2519.18 618.54C2519.18 442.31 2519.15 442.17 2508.92 429.89C2502.24 421.89 2491.15 415.43 2477.12 411.4C2465.29 407.97 2450.97 405.4 2445.35 405.66C2439.69 405.91 2427.72 408.17 2418.69 410.71C2409.66 413.23 2397.2 420.43 2391 426.69ZM3097.51 302.74L3200.07 302.74C3283.07 302.74 3307.9 304.06 3330.3 309.71C3347.25 314 3367.54 323.14 3382.59 333.31C3397.31 343.23 3412.65 358.14 3420.74 370.4C3428.2 381.69 3436.28 397.37 3438.71 405.29C3441.14 413.17 3444.03 461.14 3445.17 511.91C3446.54 574.51 3445.6 613.43 3442.23 632.91C3439.49 648.69 3433.71 668.54 3429.4 677C3425.08 685.46 3413.71 700.11 3404.14 709.6C3394.54 719.09 3375.62 731.91 3362.08 738.14C3348.56 744.34 3325.48 751.34 3310.82 753.69C3296.16 756.03 3242.15 757.94 3097.51 758L3097.51 647.26L3184.69 647.17C3232.64 647.11 3279.24 645.31 3288.27 643.17C3297.27 641 3309.27 634.57 3314.93 628.83C3325.1 618.46 3325.19 617.83 3326.19 534.37C3327.02 466.4 3326.05 448.06 3321.08 438.09C3317.68 431.31 3309.39 423 3302.62 419.63C3294.42 415.51 3278.01 413.49 3216.47 413.49L3216.58 498.57C3216.67 545.4 3215.27 585.14 3213.52 586.91C3211.75 588.69 3184.95 564.69 3097.49 477.06L3097.51 302.74ZM2691.91 306.37L2931.41 308.89L2956.02 320.37C2969.56 326.71 2987.7 338.71 2996.36 347.03C3005.02 355.37 3016.34 370.51 3021.48 380.66C3026.65 390.83 3032.97 408.8 3035.48 420.66C3038.02 432.49 3040.11 450.49 3040.11 460.66C3040.11 470.8 3038.02 488.8 3035.48 500.63C3032.94 512.49 3026.97 530.46 3022.19 540.63C3017.42 550.77 3006.91 565.54 2998.82 573.43C2990.73 581.31 2978.19 590.54 2970.93 593.94C2963.67 597.31 2957.82 601.49 2957.9 603.17C2957.99 604.86 2982.36 637.17 3012.02 674.94C3041.71 712.71 3068.03 746.03 3070.48 748.94C3074.14 753.26 3061.14 754.2 2927.3 753.6L2877.84 685.06C2842.52 636.14 2825.78 616.2 2819.38 615.49C2810.46 614.46 2810.4 614.86 2810.4 753.89L2691.45 753.89L2691.91 306.37ZM2810.4 511.91C2875.81 511.91 2892.3 509.94 2900.64 505.77C2907.41 502.37 2915.93 493.6 2919.61 486.29C2924.16 477.17 2925.47 467.74 2923.76 456.54C2922.39 447.51 2918.01 436.66 2914.04 432.4C2910.04 428.14 2900.78 422.14 2893.47 419.06C2885.75 415.83 2865.44 413.49 2845.26 413.49L2810.4 413.49L2810.4 511.91Z" />
	</g>
</svg>